<svg width="20" height="20" viewBox="0 0 20 20" fill="none" xmlns="http://www.w3.org/2000/svg">
<g id="Outline / Essentional, UI / Menu Dots ">
<g id="Vector">
<path fill-rule="evenodd" clip-rule="evenodd" d="M1.875 9.99967C1.875 8.73402 2.90101 7.70801 4.16667 7.70801C5.43232 7.70801 6.45833 8.73402 6.45833 9.99967C6.45833 11.2653 5.43232 12.2913 4.16667 12.2913C2.90101 12.2913 1.875 11.2653 1.875 9.99967ZM4.16667 8.95801C3.59137 8.95801 3.125 9.42438 3.125 9.99967C3.125 10.575 3.59137 11.0413 4.16667 11.0413C4.74196 11.0413 5.20833 10.575 5.20833 9.99967C5.20833 9.42438 4.74196 8.95801 4.16667 8.95801Z" fill="#F5F5F5"/>
<path fill-rule="evenodd" clip-rule="evenodd" d="M7.70833 9.99967C7.70833 8.73402 8.73435 7.70801 10 7.70801C11.2657 7.70801 12.2917 8.73402 12.2917 9.99967C12.2917 11.2653 11.2657 12.2913 10 12.2913C8.73435 12.2913 7.70833 11.2653 7.70833 9.99967ZM10 8.95801C9.4247 8.95801 8.95833 9.42438 8.95833 9.99967C8.95833 10.575 9.4247 11.0413 10 11.0413C10.5753 11.0413 11.0417 10.575 11.0417 9.99967C11.0417 9.42438 10.5753 8.95801 10 8.95801Z" fill="#F5F5F5"/>
<path fill-rule="evenodd" clip-rule="evenodd" d="M15.8333 7.70801C14.5677 7.70801 13.5417 8.73402 13.5417 9.99967C13.5417 11.2653 14.5677 12.2913 15.8333 12.2913C17.099 12.2913 18.125 11.2653 18.125 9.99967C18.125 8.73402 17.099 7.70801 15.8333 7.70801ZM14.7917 9.99967C14.7917 9.42438 15.258 8.95801 15.8333 8.95801C16.4086 8.95801 16.875 9.42438 16.875 9.99967C16.875 10.575 16.4086 11.0413 15.8333 11.0413C15.258 11.0413 14.7917 10.575 14.7917 9.99967Z" fill="#F5F5F5"/>
</g>
</g>
</svg>
