<svg width="20" height="20" viewBox="0 0 20 20" fill="none" xmlns="http://www.w3.org/2000/svg">
<g id="Outline / Messages, Conversation / Pen">
<path id="Vector" fill-rule="evenodd" clip-rule="evenodd" d="M12.2985 2.18487C13.8223 0.661034 16.2929 0.661034 17.8168 2.18487C19.3406 3.7087 19.3406 6.17932 17.8168 7.70315L9.91236 15.6076C9.46076 16.0592 9.19492 16.3251 8.89918 16.5557C8.55059 16.8276 8.17343 17.0607 7.77435 17.2509C7.43577 17.4123 7.07909 17.5312 6.47316 17.7331L3.69723 18.6584L3.02883 18.8812C2.48669 19.0619 1.88899 18.9208 1.4849 18.5167C1.08082 18.1127 0.939721 17.515 1.12043 16.9728L2.26854 13.5285C2.47049 12.9226 2.58937 12.5659 2.75073 12.2273C2.94093 11.8282 3.17403 11.4511 3.44591 11.1025C3.67659 10.8067 3.94246 10.5409 4.39411 10.0893L12.2985 2.18487ZM3.66839 17.3504L6.03633 16.5611C6.69559 16.3413 6.9757 16.2468 7.23658 16.1225C7.5537 15.9714 7.85341 15.7861 8.1304 15.5701C8.35828 15.3924 8.56808 15.1841 9.05946 14.6927L15.3674 8.3848C14.7102 8.153 13.8635 7.72335 13.0709 6.93075C12.2783 6.13814 11.8486 5.29148 11.6168 4.63428L5.30895 10.9422C4.81756 11.4336 4.60929 11.6434 4.43155 11.8712C4.2155 12.1482 4.03027 12.4479 3.87914 12.7651C3.75481 13.026 3.6603 13.3061 3.44055 13.9653L2.65124 16.3333L3.66839 17.3504ZM12.6308 3.62036C12.6593 3.76616 12.7074 3.96436 12.7878 4.19605C12.9688 4.71768 13.3106 5.40273 13.9548 6.04686C14.5989 6.691 15.284 7.03285 15.8056 7.21383C16.0373 7.29421 16.2355 7.34238 16.3813 7.37088L16.9329 6.81926C17.9686 5.78359 17.9686 4.10442 16.9329 3.06875C15.8972 2.03307 14.2181 2.03307 13.1824 3.06875L12.6308 3.62036Z" fill="white" fill-opacity="0.4"/>
</g>
</svg>
