<svg width="22" height="23" viewBox="0 0 22 23" fill="none" xmlns="http://www.w3.org/2000/svg">
<g id="Outline / Users / Users Group Rounded">
<g id="Vector">
<path fill-rule="evenodd" clip-rule="evenodd" d="M8.2487 1.64551C5.84396 1.64551 3.89453 3.59493 3.89453 5.99967C3.89453 8.40441 5.84396 10.3538 8.2487 10.3538C10.6534 10.3538 12.6029 8.40441 12.6029 5.99967C12.6029 3.59493 10.6534 1.64551 8.2487 1.64551ZM5.26953 5.99967C5.26953 4.35433 6.60335 3.02051 8.2487 3.02051C9.89405 3.02051 11.2279 4.35433 11.2279 5.99967C11.2279 7.64502 9.89405 8.97884 8.2487 8.97884C6.60335 8.97884 5.26953 7.64502 5.26953 5.99967Z" fill="#64748B"/>
<path d="M13.7487 2.56217C13.369 2.56217 13.0612 2.86998 13.0612 3.24967C13.0612 3.62937 13.369 3.93717 13.7487 3.93717C14.8878 3.93717 15.8112 4.86059 15.8112 5.99967C15.8112 7.13876 14.8878 8.06217 13.7487 8.06217C13.369 8.06217 13.0612 8.36998 13.0612 8.74967C13.0612 9.12937 13.369 9.43717 13.7487 9.43717C15.6472 9.43717 17.1862 7.89815 17.1862 5.99967C17.1862 4.1012 15.6472 2.56217 13.7487 2.56217Z" fill="#64748B"/>
<path fill-rule="evenodd" clip-rule="evenodd" d="M3.37033 12.8934C4.65309 12.1604 6.37931 11.7288 8.2487 11.7288C10.1181 11.7288 11.8443 12.1604 13.1271 12.8934C14.3904 13.6153 15.3529 14.7173 15.3529 16.083C15.3529 17.4487 14.3904 18.5508 13.1271 19.2726C11.8443 20.0057 10.1181 20.4372 8.2487 20.4372C6.37931 20.4372 4.65309 20.0057 3.37033 19.2726C2.10703 18.5508 1.14453 17.4487 1.14453 16.083C1.14453 14.7173 2.10703 13.6153 3.37033 12.8934ZM4.05252 14.0872C2.99345 14.6924 2.51953 15.4237 2.51953 16.083C2.51953 16.7423 2.99345 17.4736 4.05252 18.0788C5.09215 18.6729 6.57426 19.0622 8.2487 19.0622C9.92313 19.0622 11.4052 18.6729 12.4449 18.0788C13.5039 17.4736 13.9779 16.7423 13.9779 16.083C13.9779 15.4237 13.5039 14.6924 12.4449 14.0872C11.4052 13.4931 9.92313 13.1038 8.2487 13.1038C6.57426 13.1038 5.09215 13.4931 4.05252 14.0872Z" fill="#64748B"/>
<path d="M16.646 12.6615C16.2751 12.5801 15.9085 12.8149 15.8272 13.1857C15.7458 13.5566 15.9805 13.9232 16.3514 14.0045C17.0778 14.1638 17.6582 14.4374 18.0413 14.7509C18.425 15.0648 18.5612 15.3714 18.5612 15.6247C18.5612 15.8545 18.4506 16.1243 18.1459 16.4074C17.8389 16.6926 17.3672 16.9561 16.7588 17.1393C16.3952 17.2487 16.1893 17.6322 16.2987 17.9958C16.4082 18.3594 16.7917 18.5653 17.1552 18.4559C17.9093 18.2288 18.5834 17.8777 19.0817 17.4148C19.5821 16.9499 19.9362 16.3384 19.9362 15.6247C19.9362 14.832 19.5015 14.169 18.9121 13.6868C18.3222 13.2041 17.5277 12.8548 16.646 12.6615Z" fill="#64748B"/>
</g>
</g>
</svg>
