<svg width="113" height="40" viewBox="0 0 113 40" fill="none" xmlns="http://www.w3.org/2000/svg">
<path d="M7.46499 5.54372C7.90031 6.4947 7.96673 7.57987 7.94839 8.78402C7.85013 15.4104 7.75816 22.0597 7.67248 28.7322C7.67185 28.7716 7.65561 28.8097 7.62732 28.838C7.59904 28.8663 7.561 28.8825 7.52155 28.8831L0.90818 28.9709C0.868031 28.9714 0.829728 28.9559 0.80158 28.9278C0.773432 28.8996 0.757707 28.8611 0.757813 28.8205L1.13867 1.48379C1.1388 1.46732 1.14233 1.45096 1.14906 1.4357C1.1558 1.42044 1.16558 1.40662 1.17781 1.39507C1.19005 1.38352 1.20448 1.37449 1.22022 1.36854C1.23596 1.36258 1.25269 1.35982 1.26936 1.36043C4.17733 1.46956 6.24254 2.86399 7.46499 5.54372Z" fill="#141416"/>
<path d="M7.46499 5.54372C7.90031 6.4947 7.96673 7.57987 7.94839 8.78402C7.85013 15.4104 7.75816 22.0597 7.67248 28.7322C7.67185 28.7716 7.65561 28.8097 7.62732 28.838C7.59904 28.8663 7.561 28.8825 7.52155 28.8831L0.90818 28.9709C0.868031 28.9714 0.829728 28.9559 0.80158 28.9278C0.773432 28.8996 0.757707 28.8611 0.757813 28.8205L1.13867 1.48379C1.1388 1.46732 1.14233 1.45096 1.14906 1.4357C1.1558 1.42044 1.16558 1.40662 1.17781 1.39507C1.19005 1.38352 1.20448 1.37449 1.22022 1.36854C1.23596 1.36258 1.25269 1.35982 1.26936 1.36043C4.17733 1.46956 6.24254 2.86399 7.46499 5.54372Z" fill="white" fill-opacity="0.2"/>
<path d="M18.1343 11.4758L11.47 11.5705C11.4003 11.5715 11.3429 11.6288 11.342 11.6985L11.1003 28.7101C11.0993 28.7798 11.1551 28.8356 11.2248 28.8346L17.8891 28.7399C17.9589 28.7389 18.0162 28.6816 18.0172 28.6118L18.2588 11.6003C18.2598 11.5306 18.2041 11.4748 18.1343 11.4758Z" fill="#141416"/>
<path d="M18.1343 11.4758L11.47 11.5705C11.4003 11.5715 11.3429 11.6288 11.342 11.6985L11.1003 28.7101C11.0993 28.7798 11.1551 28.8356 11.2248 28.8346L17.8891 28.7399C17.9589 28.7389 18.0162 28.6816 18.0172 28.6118L18.2588 11.6003C18.2598 11.5306 18.2041 11.4748 18.1343 11.4758Z" fill="white" fill-opacity="0.2"/>
<path d="M21.3082 32.1172C21.3337 32.1166 21.3583 32.1061 21.3764 32.0879C21.3946 32.0697 21.4048 32.0455 21.405 32.0204C21.5232 23.3463 21.6269 14.6812 21.716 6.02494C21.7331 4.35173 22.3965 3.00947 23.7061 1.99816C25.0073 0.995235 26.165 1.01847 28.0239 0.990825C32.5925 0.925933 37.1618 0.861857 41.732 0.798595C44.1588 0.765364 45.9851 1.20313 47.6081 3.03241C48.7349 4.30172 49.3106 5.78549 49.3353 7.48374C49.3357 7.50131 49.3326 7.5189 49.326 7.53544C49.3194 7.55198 49.3095 7.56712 49.2969 7.57994C49.2843 7.59276 49.2693 7.60299 49.2528 7.61001C49.2362 7.61704 49.2185 7.62071 49.2006 7.6208L28.728 7.90043C28.7024 7.90105 28.6779 7.9116 28.6597 7.92976C28.6415 7.94791 28.6313 7.9722 28.6311 7.99728C28.5205 16.6555 28.4178 25.3173 28.3228 33.9827C28.3071 35.4948 27.7457 36.7529 26.6388 37.7572C25.4757 38.8127 24.3177 38.9854 22.6597 39.0077C17.6464 39.0773 12.6322 39.1477 7.61727 39.2189C3.74441 39.2751 0.828253 36.3967 0.691495 32.5824C0.690748 32.5591 0.694744 32.5358 0.70324 32.5139C0.711735 32.492 0.724552 32.4719 0.740913 32.4548C0.757274 32.4378 0.776837 32.4242 0.798413 32.4147C0.819989 32.4053 0.843125 32.4004 0.866421 32.4001L21.3082 32.1172Z" fill="#141416"/>
<path d="M21.3082 32.1172C21.3337 32.1166 21.3583 32.1061 21.3764 32.0879C21.3946 32.0697 21.4048 32.0455 21.405 32.0204C21.5232 23.3463 21.6269 14.6812 21.716 6.02494C21.7331 4.35173 22.3965 3.00947 23.7061 1.99816C25.0073 0.995235 26.165 1.01847 28.0239 0.990825C32.5925 0.925933 37.1618 0.861857 41.732 0.798595C44.1588 0.765364 45.9851 1.20313 47.6081 3.03241C48.7349 4.30172 49.3106 5.78549 49.3353 7.48374C49.3357 7.50131 49.3326 7.5189 49.326 7.53544C49.3194 7.55198 49.3095 7.56712 49.2969 7.57994C49.2843 7.59276 49.2693 7.60299 49.2528 7.61001C49.2362 7.61704 49.2185 7.62071 49.2006 7.6208L28.728 7.90043C28.7024 7.90105 28.6779 7.9116 28.6597 7.92976C28.6415 7.94791 28.6313 7.9722 28.6311 7.99728C28.5205 16.6555 28.4178 25.3173 28.3228 33.9827C28.3071 35.4948 27.7457 36.7529 26.6388 37.7572C25.4757 38.8127 24.3177 38.9854 22.6597 39.0077C17.6464 39.0773 12.6322 39.1477 7.61727 39.2189C3.74441 39.2751 0.828253 36.3967 0.691495 32.5824C0.690748 32.5591 0.694744 32.5358 0.70324 32.5139C0.711735 32.492 0.724552 32.4719 0.740913 32.4548C0.757274 32.4378 0.776837 32.4242 0.798413 32.4147C0.819989 32.4053 0.843125 32.4004 0.866421 32.4001L21.3082 32.1172Z" fill="white" fill-opacity="0.2"/>
<path d="M38.8232 11.1906L32.1519 11.2853C32.0831 11.2863 32.0266 11.3429 32.0256 11.4116L31.7839 28.4232C31.783 28.492 31.8379 28.5469 31.9067 28.5459L38.578 28.4512C38.6468 28.4502 38.7033 28.3937 38.7043 28.3249L38.9459 11.3133C38.9469 11.2446 38.892 11.1896 38.8232 11.1906Z" fill="#141416"/>
<path d="M38.8232 11.1906L32.1519 11.2853C32.0831 11.2863 32.0266 11.3429 32.0256 11.4116L31.7839 28.4232C31.783 28.492 31.8379 28.5469 31.9067 28.5459L38.578 28.4512C38.6468 28.4502 38.7033 28.3937 38.7043 28.3249L38.9459 11.3133C38.9469 11.2446 38.892 11.1896 38.8232 11.1906Z" fill="white" fill-opacity="0.2"/>
<path d="M48.6703 38.6546C44.7601 38.4572 41.9777 35.5037 42.0441 31.5253C42.1575 24.7632 42.263 18.0107 42.3604 11.2679C42.3611 11.2344 42.3749 11.2023 42.3987 11.1785C42.4226 11.1546 42.4544 11.1411 42.4874 11.1408L49.1021 11.0469C49.1507 11.0464 49.1971 11.0651 49.231 11.099C49.2649 11.1329 49.2836 11.1792 49.283 11.2278L48.9015 38.4381C48.9011 38.4673 48.8946 38.4964 48.8826 38.5234C48.8705 38.5504 48.8531 38.5748 48.8314 38.5951C48.8098 38.6154 48.7843 38.6312 48.7566 38.6414C48.7288 38.6516 48.6995 38.6561 48.6703 38.6546Z" fill="#141416"/>
<path d="M48.6703 38.6546C44.7601 38.4572 41.9777 35.5037 42.0441 31.5253C42.1575 24.7632 42.263 18.0107 42.3604 11.2679C42.3611 11.2344 42.3749 11.2023 42.3987 11.1785C42.4226 11.1546 42.4544 11.1411 42.4874 11.1408L49.1021 11.0469C49.1507 11.0464 49.1971 11.0651 49.231 11.099C49.2649 11.1329 49.2836 11.1792 49.283 11.2278L48.9015 38.4381C48.9011 38.4673 48.8946 38.4964 48.8826 38.5234C48.8705 38.5504 48.8531 38.5748 48.8314 38.5951C48.8098 38.6154 48.7843 38.6312 48.7566 38.6414C48.7288 38.6516 48.6995 38.6561 48.6703 38.6546Z" fill="white" fill-opacity="0.2"/>
<path d="M66.35 28C66.1633 27.2933 65.96 26.54 65.74 25.74C65.52 24.9333 65.3133 24.1867 65.12 23.5L63.91 19.02C63.6967 18.2267 63.46 17.36 63.2 16.42C62.94 15.4733 62.6967 14.58 62.47 13.74H65.61C65.8233 14.66 66.0467 15.63 66.28 16.65C66.5133 17.6633 66.7367 18.6333 66.95 19.56L68.12 24.68H68.34L69.52 19.49C69.6533 18.8967 69.7967 18.27 69.95 17.61C70.1033 16.95 70.2533 16.29 70.4 15.63C70.5533 14.97 70.6967 14.34 70.83 13.74H73.87C74.09 14.66 74.3167 15.62 74.55 16.62C74.7833 17.6133 75.01 18.5767 75.23 19.51L76.44 24.68H76.66L77.85 19.48C78.0567 18.5867 78.2733 17.63 78.5 16.61C78.7333 15.59 78.95 14.6333 79.15 13.74H82.3C82.0667 14.5867 81.82 15.4767 81.56 16.41C81.3067 17.3433 81.07 18.2033 80.85 18.99L79.6 23.5C79.4 24.2067 79.19 24.96 78.97 25.76C78.75 26.56 78.5433 27.3067 78.35 28H74.91C74.6967 27.14 74.47 26.2367 74.23 25.29C73.9967 24.3433 73.7767 23.4467 73.57 22.6L72.35 17.73H72.13L70.95 22.6C70.75 23.44 70.5333 24.34 70.3 25.3C70.0733 26.2533 69.8567 27.1533 69.65 28H66.35ZM82.7133 28C82.8133 27.2467 82.9099 26.4967 83.0033 25.75C83.0966 24.9967 83.1966 24.1833 83.3033 23.31L83.8933 18.55C84.0066 17.6833 84.1099 16.87 84.2033 16.11C84.2966 15.3433 84.3933 14.5533 84.4933 13.74H87.3233C87.6766 14.62 88.0133 15.4667 88.3333 16.28C88.6533 17.0867 88.9733 17.89 89.2933 18.69L91.1833 23.44H91.3733L93.2133 18.7C93.5333 17.8933 93.8466 17.0933 94.1533 16.3C94.4666 15.5 94.7933 14.6467 95.1333 13.74H97.9333C98.0333 14.5467 98.1299 15.3333 98.2233 16.1C98.3233 16.86 98.4266 17.68 98.5333 18.56L99.1333 23.34C99.2466 24.2067 99.3499 25.01 99.4433 25.75C99.5366 26.4833 99.6299 27.2333 99.7233 28H97.0633C96.9299 26.9133 96.8033 25.88 96.6833 24.9C96.5633 23.92 96.4499 23.0033 96.3433 22.15L95.8933 18.47H95.7033L94.2733 22.43C93.9266 23.3967 93.5766 24.3567 93.2233 25.31C92.8766 26.2633 92.5533 27.16 92.2533 28H90.3833C90.1833 27.46 89.9599 26.88 89.7133 26.26C89.4733 25.6333 89.2266 24.9967 88.9733 24.35C88.7199 23.6967 88.4699 23.06 88.2233 22.44L86.6833 18.47H86.4933L86.0533 22.13C85.9466 22.99 85.8333 23.9133 85.7133 24.9C85.5933 25.88 85.4699 26.9133 85.3433 28H82.7133ZM106.532 28.25C105.938 28.25 105.332 28.1967 104.712 28.09C104.098 27.99 103.525 27.8633 102.992 27.71C102.465 27.55 102.038 27.39 101.712 27.23L101.922 24.69C102.382 24.95 102.858 25.1733 103.352 25.36C103.852 25.5467 104.352 25.69 104.852 25.79C105.358 25.89 105.852 25.94 106.332 25.94C106.832 25.94 107.275 25.8767 107.662 25.75C108.048 25.6233 108.348 25.4267 108.562 25.16C108.782 24.8933 108.892 24.5533 108.892 24.14C108.892 23.72 108.762 23.3733 108.502 23.1C108.248 22.8267 107.878 22.59 107.392 22.39C106.912 22.1833 106.335 21.98 105.662 21.78C104.782 21.5133 104.028 21.2133 103.402 20.88C102.782 20.54 102.305 20.11 101.972 19.59C101.645 19.07 101.482 18.4 101.482 17.58C101.482 16.78 101.662 16.07 102.022 15.45C102.388 14.8233 102.935 14.3367 103.662 13.99C104.388 13.6367 105.298 13.46 106.392 13.46C106.825 13.46 107.262 13.49 107.702 13.55C108.142 13.6033 108.565 13.68 108.972 13.78C109.378 13.8733 109.752 13.9833 110.092 14.11C110.438 14.23 110.738 14.3567 110.992 14.49L110.762 17.03C110.348 16.7633 109.912 16.5367 109.452 16.35C108.998 16.1633 108.548 16.0233 108.102 15.93C107.662 15.8367 107.255 15.79 106.882 15.79C106.435 15.79 106.025 15.8533 105.652 15.98C105.285 16.1 104.988 16.2867 104.762 16.54C104.542 16.7867 104.432 17.1 104.432 17.48C104.432 17.8467 104.532 18.1533 104.732 18.4C104.932 18.6467 105.245 18.8667 105.672 19.06C106.098 19.2533 106.645 19.4533 107.312 19.66C108.452 20.0067 109.352 20.3667 110.012 20.74C110.672 21.1067 111.138 21.5467 111.412 22.06C111.692 22.5733 111.832 23.2167 111.832 23.99C111.832 24.83 111.645 25.57 111.272 26.21C110.905 26.85 110.332 27.35 109.552 27.71C108.772 28.07 107.765 28.25 106.532 28.25Z" fill="#141416"/>
<path d="M66.35 28C66.1633 27.2933 65.96 26.54 65.74 25.74C65.52 24.9333 65.3133 24.1867 65.12 23.5L63.91 19.02C63.6967 18.2267 63.46 17.36 63.2 16.42C62.94 15.4733 62.6967 14.58 62.47 13.74H65.61C65.8233 14.66 66.0467 15.63 66.28 16.65C66.5133 17.6633 66.7367 18.6333 66.95 19.56L68.12 24.68H68.34L69.52 19.49C69.6533 18.8967 69.7967 18.27 69.95 17.61C70.1033 16.95 70.2533 16.29 70.4 15.63C70.5533 14.97 70.6967 14.34 70.83 13.74H73.87C74.09 14.66 74.3167 15.62 74.55 16.62C74.7833 17.6133 75.01 18.5767 75.23 19.51L76.44 24.68H76.66L77.85 19.48C78.0567 18.5867 78.2733 17.63 78.5 16.61C78.7333 15.59 78.95 14.6333 79.15 13.74H82.3C82.0667 14.5867 81.82 15.4767 81.56 16.41C81.3067 17.3433 81.07 18.2033 80.85 18.99L79.6 23.5C79.4 24.2067 79.19 24.96 78.97 25.76C78.75 26.56 78.5433 27.3067 78.35 28H74.91C74.6967 27.14 74.47 26.2367 74.23 25.29C73.9967 24.3433 73.7767 23.4467 73.57 22.6L72.35 17.73H72.13L70.95 22.6C70.75 23.44 70.5333 24.34 70.3 25.3C70.0733 26.2533 69.8567 27.1533 69.65 28H66.35ZM82.7133 28C82.8133 27.2467 82.9099 26.4967 83.0033 25.75C83.0966 24.9967 83.1966 24.1833 83.3033 23.31L83.8933 18.55C84.0066 17.6833 84.1099 16.87 84.2033 16.11C84.2966 15.3433 84.3933 14.5533 84.4933 13.74H87.3233C87.6766 14.62 88.0133 15.4667 88.3333 16.28C88.6533 17.0867 88.9733 17.89 89.2933 18.69L91.1833 23.44H91.3733L93.2133 18.7C93.5333 17.8933 93.8466 17.0933 94.1533 16.3C94.4666 15.5 94.7933 14.6467 95.1333 13.74H97.9333C98.0333 14.5467 98.1299 15.3333 98.2233 16.1C98.3233 16.86 98.4266 17.68 98.5333 18.56L99.1333 23.34C99.2466 24.2067 99.3499 25.01 99.4433 25.75C99.5366 26.4833 99.6299 27.2333 99.7233 28H97.0633C96.9299 26.9133 96.8033 25.88 96.6833 24.9C96.5633 23.92 96.4499 23.0033 96.3433 22.15L95.8933 18.47H95.7033L94.2733 22.43C93.9266 23.3967 93.5766 24.3567 93.2233 25.31C92.8766 26.2633 92.5533 27.16 92.2533 28H90.3833C90.1833 27.46 89.9599 26.88 89.7133 26.26C89.4733 25.6333 89.2266 24.9967 88.9733 24.35C88.7199 23.6967 88.4699 23.06 88.2233 22.44L86.6833 18.47H86.4933L86.0533 22.13C85.9466 22.99 85.8333 23.9133 85.7133 24.9C85.5933 25.88 85.4699 26.9133 85.3433 28H82.7133ZM106.532 28.25C105.938 28.25 105.332 28.1967 104.712 28.09C104.098 27.99 103.525 27.8633 102.992 27.71C102.465 27.55 102.038 27.39 101.712 27.23L101.922 24.69C102.382 24.95 102.858 25.1733 103.352 25.36C103.852 25.5467 104.352 25.69 104.852 25.79C105.358 25.89 105.852 25.94 106.332 25.94C106.832 25.94 107.275 25.8767 107.662 25.75C108.048 25.6233 108.348 25.4267 108.562 25.16C108.782 24.8933 108.892 24.5533 108.892 24.14C108.892 23.72 108.762 23.3733 108.502 23.1C108.248 22.8267 107.878 22.59 107.392 22.39C106.912 22.1833 106.335 21.98 105.662 21.78C104.782 21.5133 104.028 21.2133 103.402 20.88C102.782 20.54 102.305 20.11 101.972 19.59C101.645 19.07 101.482 18.4 101.482 17.58C101.482 16.78 101.662 16.07 102.022 15.45C102.388 14.8233 102.935 14.3367 103.662 13.99C104.388 13.6367 105.298 13.46 106.392 13.46C106.825 13.46 107.262 13.49 107.702 13.55C108.142 13.6033 108.565 13.68 108.972 13.78C109.378 13.8733 109.752 13.9833 110.092 14.11C110.438 14.23 110.738 14.3567 110.992 14.49L110.762 17.03C110.348 16.7633 109.912 16.5367 109.452 16.35C108.998 16.1633 108.548 16.0233 108.102 15.93C107.662 15.8367 107.255 15.79 106.882 15.79C106.435 15.79 106.025 15.8533 105.652 15.98C105.285 16.1 104.988 16.2867 104.762 16.54C104.542 16.7867 104.432 17.1 104.432 17.48C104.432 17.8467 104.532 18.1533 104.732 18.4C104.932 18.6467 105.245 18.8667 105.672 19.06C106.098 19.2533 106.645 19.4533 107.312 19.66C108.452 20.0067 109.352 20.3667 110.012 20.74C110.672 21.1067 111.138 21.5467 111.412 22.06C111.692 22.5733 111.832 23.2167 111.832 23.99C111.832 24.83 111.645 25.57 111.272 26.21C110.905 26.85 110.332 27.35 109.552 27.71C108.772 28.07 107.765 28.25 106.532 28.25Z" fill="white" fill-opacity="0.2"/>
</svg>
