<svg width="20" height="21" viewBox="0 0 20 21" fill="none" xmlns="http://www.w3.org/2000/svg">
<path fill-rule="evenodd" clip-rule="evenodd" d="M5.37203 1.95801C4.62331 1.95799 3.99895 1.95797 3.5033 2.0246C2.98014 2.09494 2.50781 2.24967 2.12825 2.62922C1.74869 3.00878 1.59396 3.48112 1.52363 4.00428C1.45699 4.49992 1.45701 5.12427 1.45703 5.87299V5.95968C1.45701 6.7084 1.45699 7.33276 1.52363 7.82841C1.59396 8.35157 1.74869 8.82391 2.12825 9.20346C2.50781 9.58302 2.98014 9.73775 3.5033 9.80808C3.99895 9.87472 4.62329 9.8747 5.37201 9.87468H5.4587C6.20742 9.8747 6.83179 9.87472 7.32743 9.80808C7.8506 9.73775 8.32293 9.58302 8.70249 9.20346C9.08205 8.82391 9.23677 8.35157 9.30711 7.82841C9.37375 7.33276 9.37373 6.70842 9.3737 5.9597V5.87302C9.37373 5.12429 9.37375 4.49992 9.30711 4.00428C9.23677 3.48112 9.08205 3.00878 8.70249 2.62922C8.32293 2.24967 7.8506 2.09494 7.32743 2.0246C6.83179 1.95797 6.20745 1.95799 5.45872 1.95801H5.37203ZM3.01213 3.51311C3.12073 3.40451 3.28531 3.31516 3.66986 3.26346C4.07239 3.20934 4.61202 3.20801 5.41537 3.20801C6.21871 3.20801 6.75834 3.20934 7.16087 3.26346C7.54543 3.31516 7.71001 3.40451 7.8186 3.51311C7.9272 3.6217 8.01655 3.78629 8.06825 4.17084C8.12237 4.57337 8.1237 5.113 8.1237 5.91634C8.1237 6.71969 8.12237 7.25932 8.06825 7.66185C8.01655 8.0464 7.9272 8.21098 7.8186 8.31958C7.71001 8.42818 7.54543 8.51753 7.16087 8.56923C6.75834 8.62335 6.21871 8.62468 5.41537 8.62468C4.61202 8.62468 4.07239 8.62335 3.66986 8.56923C3.28531 8.51753 3.12073 8.42818 3.01213 8.31958C2.90353 8.21098 2.81418 8.0464 2.76248 7.66185C2.70836 7.25932 2.70703 6.71969 2.70703 5.91634C2.70703 5.113 2.70836 4.57337 2.76248 4.17084C2.81418 3.78629 2.90353 3.6217 3.01213 3.51311Z" fill="#64748B"/>
<path fill-rule="evenodd" clip-rule="evenodd" d="M14.5387 11.1247C13.79 11.1247 13.1656 11.1246 12.67 11.1913C12.1468 11.2616 11.6745 11.4163 11.2949 11.7959C10.9154 12.1755 10.7606 12.6478 10.6903 13.1709C10.6237 13.6666 10.6237 14.2909 10.6237 15.0397V15.1263C10.6237 15.8751 10.6237 16.4994 10.6903 16.9951C10.7606 17.5182 10.9154 17.9906 11.2949 18.3701C11.6745 18.7497 12.1468 18.9044 12.67 18.9748C13.1656 19.0414 13.7899 19.0414 14.5386 19.0413H14.6254C15.3741 19.0414 15.9985 19.0414 16.4941 18.9748C17.0173 18.9044 17.4896 18.7497 17.8692 18.3701C18.2487 17.9906 18.4034 17.5182 18.4738 16.9951C18.5404 16.4994 18.5404 15.8751 18.5404 15.1264V15.0397C18.5404 14.291 18.5404 13.6666 18.4738 13.1709C18.4034 12.6478 18.2487 12.1755 17.8692 11.7959C17.4896 11.4163 17.0173 11.2616 16.4941 11.1913C15.9985 11.1246 15.3741 11.1247 14.6254 11.1247H14.5387ZM12.1788 12.6798C12.2874 12.5712 12.452 12.4818 12.8365 12.4301C13.2391 12.376 13.7787 12.3747 14.582 12.3747C15.3854 12.3747 15.925 12.376 16.3275 12.4301C16.7121 12.4818 16.8767 12.5712 16.9853 12.6798C17.0939 12.7884 17.1832 12.953 17.2349 13.3375C17.289 13.74 17.2904 14.2797 17.2904 15.083C17.2904 15.8864 17.289 16.426 17.2349 16.8285C17.1832 17.2131 17.0939 17.3777 16.9853 17.4862C16.8767 17.5948 16.7121 17.6842 16.3275 17.7359C15.925 17.79 15.3854 17.7913 14.582 17.7913C13.7787 17.7913 13.2391 17.79 12.8365 17.7359C12.452 17.6842 12.2874 17.5948 12.1788 17.4862C12.0702 17.3777 11.9808 17.2131 11.9291 16.8285C11.875 16.426 11.8737 15.8864 11.8737 15.083C11.8737 14.2797 11.875 13.74 11.9291 13.3375C11.9808 12.953 12.0702 12.7884 12.1788 12.6798Z" fill="#64748B"/>
<path fill-rule="evenodd" clip-rule="evenodd" d="M5.37203 11.1247H5.4587C6.20743 11.1247 6.83178 11.1246 7.32743 11.1913C7.8506 11.2616 8.32293 11.4163 8.70249 11.7959C9.08205 12.1755 9.23677 12.6478 9.30711 13.1709C9.37375 13.6666 9.37373 14.2909 9.3737 15.0397V15.1263C9.37373 15.8751 9.37375 16.4994 9.30711 16.9951C9.23677 17.5182 9.08205 17.9906 8.70249 18.3701C8.32293 18.7497 7.8506 18.9044 7.32743 18.9748C6.83179 19.0414 6.20746 19.0414 5.45875 19.0413H5.37204C4.62333 19.0414 3.99894 19.0414 3.5033 18.9748C2.98014 18.9044 2.50781 18.7497 2.12825 18.3701C1.74869 17.9906 1.59396 17.5182 1.52363 16.9951C1.45699 16.4994 1.45701 15.8751 1.45703 15.1264V15.0397C1.45701 14.291 1.45699 13.6666 1.52363 13.1709C1.59396 12.6478 1.74869 12.1755 2.12825 11.7959C2.50781 11.4163 2.98014 11.2616 3.5033 11.1913C3.99895 11.1246 4.6233 11.1247 5.37203 11.1247ZM3.66986 12.4301C3.28531 12.4818 3.12073 12.5712 3.01213 12.6798C2.90353 12.7884 2.81418 12.953 2.76248 13.3375C2.70836 13.74 2.70703 14.2797 2.70703 15.083C2.70703 15.8864 2.70836 16.426 2.76248 16.8285C2.81418 17.2131 2.90353 17.3777 3.01213 17.4862C3.12073 17.5948 3.28531 17.6842 3.66986 17.7359C4.07239 17.79 4.61202 17.7913 5.41537 17.7913C6.21871 17.7913 6.75834 17.79 7.16087 17.7359C7.54543 17.6842 7.71001 17.5948 7.8186 17.4862C7.9272 17.3777 8.01655 17.2131 8.06825 16.8285C8.12237 16.426 8.1237 15.8864 8.1237 15.083C8.1237 14.2797 8.12237 13.74 8.06825 13.3375C8.01655 12.953 7.9272 12.7884 7.8186 12.6798C7.71001 12.5712 7.54543 12.4818 7.16087 12.4301C6.75834 12.376 6.21871 12.3747 5.41537 12.3747C4.61202 12.3747 4.07239 12.376 3.66986 12.4301Z" fill="#64748B"/>
<path fill-rule="evenodd" clip-rule="evenodd" d="M14.5387 1.95801C13.79 1.95799 13.1656 1.95797 12.67 2.0246C12.1468 2.09494 11.6745 2.24967 11.2949 2.62922C10.9154 3.00878 10.7606 3.48112 10.6903 4.00428C10.6237 4.49993 10.6237 5.12428 10.6237 5.87301V5.95968C10.6237 6.70841 10.6237 7.33276 10.6903 7.82841C10.7606 8.35157 10.9154 8.82391 11.2949 9.20346C11.6745 9.58302 12.1468 9.73775 12.67 9.80808C13.1656 9.87472 13.79 9.8747 14.5387 9.87468H14.6254C15.3741 9.8747 15.9985 9.87472 16.4941 9.80808C17.0173 9.73775 17.4896 9.58302 17.8692 9.20346C18.2487 8.82391 18.4034 8.35157 18.4738 7.82841C18.5404 7.33276 18.5404 6.70842 18.5404 5.9597V5.87302C18.5404 5.12429 18.5404 4.49992 18.4738 4.00428C18.4034 3.48112 18.2487 3.00878 17.8692 2.62922C17.4896 2.24967 17.0173 2.09494 16.4941 2.0246C15.9985 1.95797 15.3741 1.95799 14.6254 1.95801H14.5387ZM12.1788 3.51311C12.2874 3.40451 12.452 3.31516 12.8365 3.26346C13.2391 3.20934 13.7787 3.20801 14.582 3.20801C15.3854 3.20801 15.925 3.20934 16.3275 3.26346C16.7121 3.31516 16.8767 3.40451 16.9853 3.51311C17.0939 3.6217 17.1832 3.78629 17.2349 4.17084C17.289 4.57337 17.2904 5.113 17.2904 5.91634C17.2904 6.71969 17.289 7.25932 17.2349 7.66185C17.1832 8.0464 17.0939 8.21098 16.9853 8.31958C16.8767 8.42818 16.7121 8.51753 16.3275 8.56923C15.925 8.62335 15.3854 8.62468 14.582 8.62468C13.7787 8.62468 13.2391 8.62335 12.8365 8.56923C12.452 8.51753 12.2874 8.42818 12.1788 8.31958C12.0702 8.21098 11.9808 8.0464 11.9291 7.66185C11.875 7.25932 11.8737 6.71969 11.8737 5.91634C11.8737 5.113 11.875 4.57337 11.9291 4.17084C11.9808 3.78629 12.0702 3.6217 12.1788 3.51311Z" fill="#64748B"/>
</svg>
