<svg width="48" height="48" viewBox="0 0 48 48" fill="none" xmlns="http://www.w3.org/2000/svg">
<rect width="48" height="48" rx="24" fill="#F5F5F5"/>
<path fill-rule="evenodd" clip-rule="evenodd" d="M24.0002 11.458C19.0066 11.458 14.9585 15.5061 14.9585 20.4997V21.3211C14.9585 22.1342 14.7179 22.9291 14.2669 23.6056L12.9268 25.6157C11.3715 27.9486 12.5589 31.1196 15.2639 31.8573C16.1454 32.0978 17.0344 32.3011 17.9286 32.4674L17.9308 32.4734C18.8279 34.8673 21.2258 36.5413 24.0001 36.5413C26.7745 36.5413 29.1723 34.8673 30.0695 32.4734L30.0717 32.4675C30.9659 32.3011 31.8549 32.0978 32.7365 31.8573C35.4416 31.1196 36.6289 27.9486 35.0736 25.6157L33.7336 23.6056C33.2825 22.9291 33.0419 22.1342 33.0419 21.3211V20.4997C33.0419 15.5061 28.9938 11.458 24.0002 11.458ZM27.9394 32.7928C25.3226 33.1054 22.6777 33.1054 20.0609 32.7928C20.8903 33.9846 22.333 34.7913 24.0001 34.7913C25.6672 34.7913 27.1099 33.9846 27.9394 32.7928ZM16.7085 20.4997C16.7085 16.4726 19.9731 13.208 24.0002 13.208C28.0273 13.208 31.2919 16.4726 31.2919 20.4997V21.3211C31.2919 22.4797 31.6348 23.6123 32.2775 24.5763L33.6175 26.5864C34.5102 27.9254 33.8287 29.7456 32.2761 30.169C26.8578 31.6467 21.1426 31.6467 15.7243 30.169C14.1717 29.7456 13.4902 27.9254 14.3829 26.5864L15.7229 24.5763C16.3656 23.6123 16.7085 22.4797 16.7085 21.3211V20.4997Z" fill="#64748B"/>
<circle cx="33" cy="18" r="5.75" fill="#EB5757" stroke="#F5F5F5" stroke-width="1.5"/>
</svg>
