<svg width="20" height="20" viewBox="0 0 20 20" fill="none" xmlns="http://www.w3.org/2000/svg">
<g id="Outline / Essentional, UI / Add Circle">
<g id="Vector">
<path d="M10.6263 7.50033C10.6263 7.15515 10.3465 6.87533 10.0013 6.87533C9.65612 6.87533 9.3763 7.15515 9.3763 7.50033L9.3763 9.37535H7.5013C7.15612 9.37535 6.8763 9.65517 6.8763 10.0003C6.8763 10.3455 7.15612 10.6253 7.5013 10.6253H9.3763V12.5003C9.3763 12.8455 9.65612 13.1253 10.0013 13.1253C10.3465 13.1253 10.6263 12.8455 10.6263 12.5003L10.6263 10.6253H12.5013C12.8465 10.6253 13.1263 10.3455 13.1263 10.0003C13.1263 9.65517 12.8465 9.37535 12.5013 9.37535H10.6263V7.50033Z" fill="#141416"/>
<path fill-rule="evenodd" clip-rule="evenodd" d="M10.0013 1.04199C5.05375 1.04199 1.04297 5.05277 1.04297 10.0003C1.04297 14.9479 5.05375 18.9587 10.0013 18.9587C14.9489 18.9587 18.9596 14.9479 18.9596 10.0003C18.9596 5.05277 14.9489 1.04199 10.0013 1.04199ZM2.29297 10.0003C2.29297 5.74313 5.74411 2.29199 10.0013 2.29199C14.2585 2.29199 17.7096 5.74313 17.7096 10.0003C17.7096 14.2575 14.2585 17.7087 10.0013 17.7087C5.74411 17.7087 2.29297 14.2575 2.29297 10.0003Z" fill="#141416"/>
</g>
</g>
</svg>
