<svg width="20" height="21" viewBox="0 0 20 21" fill="none" xmlns="http://www.w3.org/2000/svg">
<g id="Outline / Shopping, Ecommerce / Cart 3">
<g id="Vector">
<path d="M7.29118 11.3333C7.29118 10.9882 7.01136 10.7083 6.66618 10.7083C6.321 10.7083 6.04118 10.9882 6.04118 11.3333V14.6667C6.04118 15.0118 6.321 15.2917 6.66618 15.2917C7.01136 15.2917 7.29118 15.0118 7.29118 14.6667V11.3333Z" fill="#64748B"/>
<path d="M13.3328 10.7083C13.678 10.7083 13.9578 10.9882 13.9578 11.3333V14.6667C13.9578 15.0118 13.678 15.2917 13.3328 15.2917C12.9877 15.2917 12.7078 15.0118 12.7078 14.6667V11.3333C12.7078 10.9882 12.9877 10.7083 13.3328 10.7083Z" fill="#64748B"/>
<path d="M10.6245 11.3333C10.6245 10.9882 10.3447 10.7083 9.99951 10.7083C9.65433 10.7083 9.37451 10.9882 9.37451 11.3333V14.6667C9.37451 15.0118 9.65433 15.2917 9.99951 15.2917C10.3447 15.2917 10.6245 15.0118 10.6245 14.6667V11.3333Z" fill="#64748B"/>
<path fill-rule="evenodd" clip-rule="evenodd" d="M14.3943 3.39415C13.998 3.23926 13.5541 3.21312 12.9845 3.20898C12.7506 2.71593 12.2482 2.375 11.6662 2.375H8.33285C7.75084 2.375 7.24847 2.71593 7.01455 3.20898C6.44493 3.21312 6.00098 3.23926 5.60469 3.39415C5.1312 3.57921 4.71935 3.89379 4.41625 4.30192C4.11048 4.71366 3.96694 5.2414 3.76938 5.96778L3.24615 7.88688C2.92323 8.05224 2.64066 8.27493 2.40494 8.57684C1.88661 9.2407 1.79482 10.0314 1.88703 10.9384C1.9765 11.8185 2.25358 12.9268 2.60043 14.3141L2.62243 14.4021C2.84174 15.2794 3.01981 15.9917 3.23159 16.5476C3.4524 17.1272 3.73274 17.6023 4.19492 17.9631C4.6571 18.324 5.18597 18.4807 5.80181 18.5544C6.39249 18.625 7.12673 18.625 8.03104 18.625H11.9679C12.8722 18.625 13.6065 18.625 14.1971 18.5544C14.813 18.4807 15.3418 18.324 15.804 17.9631C16.2662 17.6023 16.5466 17.1272 16.7674 16.5476C16.9791 15.9917 17.1572 15.2794 17.3765 14.4021L17.3985 14.3141C17.7454 12.9268 18.0225 11.8185 18.1119 10.9384C18.2041 10.0314 18.1123 9.2407 17.594 8.57684C17.3583 8.27496 17.0758 8.05228 16.7529 7.88692L16.2296 5.96777C16.0321 5.2414 15.8885 4.71365 15.5828 4.30192C15.2797 3.89379 14.8678 3.57921 14.3943 3.39415ZM6.05971 4.55839C6.24288 4.4868 6.46419 4.46574 7.01572 4.46016C7.25015 4.95187 7.75182 5.29167 8.33285 5.29167H11.6662C12.2472 5.29167 12.7489 4.95187 12.9833 4.46016C13.5348 4.46574 13.7561 4.4868 13.9393 4.55839C14.1943 4.65803 14.416 4.82742 14.5792 5.04719C14.726 5.2448 14.8121 5.5209 15.0545 6.40995L15.3492 7.49058C14.4843 7.37497 13.3678 7.37498 11.9806 7.375H8.01831C6.63116 7.37498 5.51467 7.37497 4.64985 7.49057L4.9445 6.40995C5.18691 5.5209 5.27303 5.2448 5.41979 5.04719C5.58299 4.82743 5.80475 4.65803 6.05971 4.55839ZM8.33285 3.625C8.21779 3.625 8.12451 3.71827 8.12451 3.83333C8.12451 3.94839 8.21779 4.04167 8.33285 4.04167H11.6662C11.7812 4.04167 11.8745 3.94839 11.8745 3.83333C11.8745 3.71827 11.7812 3.625 11.6662 3.625H8.33285ZM3.3902 9.3461C3.62256 9.04849 3.99004 8.84859 4.74935 8.73875C5.52488 8.62656 6.57641 8.625 8.07002 8.625H11.9289C13.4225 8.625 14.4741 8.62656 15.2496 8.73875C16.0089 8.84859 16.3764 9.04849 16.6088 9.3461C16.8411 9.64371 16.9459 10.0487 16.8683 10.812C16.7891 11.5916 16.5356 12.6121 16.1733 14.0611C15.9422 14.9853 15.7813 15.6247 15.5993 16.1026C15.4232 16.5648 15.2507 16.8093 15.0348 16.9779C14.8188 17.1465 14.5399 17.2545 14.0487 17.3132C13.5409 17.374 12.8816 17.375 11.9289 17.375H8.07002C7.11737 17.375 6.45805 17.374 5.95023 17.3132C5.45909 17.2545 5.18015 17.1465 4.96419 16.9779C4.74822 16.8093 4.57579 16.5648 4.3997 16.1026C4.21762 15.6247 4.0567 14.9853 3.82565 14.0611C3.4634 12.6121 3.20987 11.5916 3.13062 10.812C3.05302 10.0487 3.15783 9.64371 3.3902 9.3461Z" fill="#64748B"/>
</g>
</g>
</svg>
