<svg width="22" height="23" viewBox="0 0 22 23" fill="none" xmlns="http://www.w3.org/2000/svg">
<path fill-rule="evenodd" clip-rule="evenodd" d="M6.81435 1.64551H15.183C15.7054 1.64549 16.1491 1.64548 16.5156 1.68338C16.906 1.72374 17.2667 1.81137 17.6075 2.02199C17.9483 2.23262 18.188 2.51607 18.3987 2.84714C18.5965 3.1581 18.7949 3.5549 19.0285 4.02224L19.0436 4.05243C19.0526 4.07026 19.0607 4.08846 19.068 4.10699L20.3547 7.35946C20.5078 7.74647 20.6774 8.22928 20.727 8.72335C20.7778 9.2287 20.7081 9.80764 20.3121 10.3097C19.9882 10.7205 19.5379 11.0287 19.0195 11.1755V19.9788H20.1654C20.5451 19.9788 20.8529 20.2866 20.8529 20.6663C20.8529 21.046 20.5451 21.3538 20.1654 21.3538H1.83203C1.45234 21.3538 1.14453 21.046 1.14453 20.6663C1.14453 20.2866 1.45234 19.9788 1.83203 19.9788H2.97786V11.1755C2.45945 11.0288 2.00906 10.7205 1.68514 10.3097C1.28917 9.80762 1.21953 9.2287 1.27028 8.72334C1.31989 8.22928 1.48955 7.74647 1.64265 7.35946L2.92929 4.10699C2.93663 4.08846 2.94476 4.07026 2.95367 4.05243L2.96879 4.0222C3.20243 3.55487 3.40081 3.15809 3.59866 2.84715C3.80931 2.51607 4.04902 2.23262 4.38981 2.02199C4.7306 1.81137 5.09134 1.72374 5.48167 1.68338C5.84826 1.64548 6.29188 1.64549 6.81435 1.64551ZM16.4986 10.4799C16.8066 10.8061 17.2007 11.0501 17.6445 11.1756V19.9788H13.9779L13.9779 17.4285C13.9779 17.0254 13.9779 16.6776 13.952 16.3922C13.9247 16.0905 13.8641 15.7917 13.7015 15.5101C13.5205 15.1966 13.2602 14.9362 12.9466 14.7552C12.665 14.5926 12.3662 14.532 12.0645 14.5047C11.7791 14.4788 11.4314 14.4788 11.0282 14.4788H10.9692C10.566 14.4788 10.2183 14.4788 9.93293 14.5047C9.63118 14.532 9.33239 14.5926 9.05078 14.7552C8.73724 14.9362 8.47688 15.1966 8.29585 15.5101C8.13327 15.7917 8.07271 16.0905 8.04536 16.3922C8.0195 16.6776 8.01952 17.0253 8.01953 17.4284L8.01953 19.9788H4.35286V11.1756C4.79665 11.0501 5.19068 10.806 5.49862 10.4799C5.95822 10.9667 6.6096 11.2705 7.33195 11.2705C8.0543 11.2705 8.70568 10.9667 9.16529 10.4799C9.62489 10.9667 10.2763 11.2705 10.9986 11.2705C11.721 11.2705 12.3724 10.9667 12.832 10.4799C13.2916 10.9667 13.9429 11.2705 14.6653 11.2705C15.3876 11.2705 16.039 10.9667 16.4986 10.4799ZM9.39453 19.9788H12.6029V17.458C12.6029 17.017 12.6022 16.7322 12.5826 16.5164C12.5639 16.31 12.5324 16.2351 12.5108 16.1976C12.4504 16.0931 12.3636 16.0063 12.2591 15.946C12.2217 15.9243 12.1467 15.8928 11.9403 15.8741C11.7245 15.8545 11.4397 15.8538 10.9987 15.8538C10.5577 15.8538 10.2729 15.8545 10.057 15.8741C9.85067 15.8928 9.77574 15.9243 9.73828 15.946C9.63377 16.0063 9.54698 16.0931 9.48664 16.1976C9.46501 16.2351 9.43346 16.31 9.41475 16.5164C9.39519 16.7322 9.39453 17.017 9.39453 17.458V19.9788ZM6.18612 8.74968C6.18612 9.3825 6.69913 9.89551 7.33195 9.89551C7.96478 9.89551 8.47778 9.3825 8.47778 8.74968C8.47778 8.36998 8.78559 8.06218 9.16529 8.06218C9.54498 8.06218 9.85279 8.36998 9.85279 8.74968C9.85279 9.3825 10.3658 9.89551 10.9986 9.89551C11.6314 9.89551 12.1445 9.3825 12.1445 8.74968C12.1445 8.36998 12.4523 8.06218 12.832 8.06218C13.2116 8.06218 13.5195 8.36998 13.5195 8.74968C13.5195 9.3825 14.0325 9.89551 14.6653 9.89551C15.2981 9.89551 15.8111 9.3825 15.8111 8.74968C15.8111 8.36998 16.1189 8.06218 16.4986 8.06218C16.8783 8.06218 17.1861 8.36998 17.1861 8.74968C17.1861 9.3825 17.6991 9.89551 18.3319 9.89551C18.6968 9.89551 19.0215 9.72581 19.2325 9.4583C19.3369 9.32588 19.3874 9.1447 19.3589 8.86072C19.3293 8.56545 19.2202 8.2297 19.0761 7.86526L17.8004 4.64061C17.555 4.14988 17.391 3.82487 17.2386 3.58529C17.0919 3.35482 16.9869 3.25483 16.8846 3.19164C16.7824 3.12845 16.646 3.07918 16.3742 3.05109C16.0867 3.02136 15.7146 3.02051 15.1492 3.02051H6.84816C6.28275 3.02051 5.91064 3.02136 5.62308 3.05109C5.35136 3.07918 5.21493 3.12845 5.11269 3.19164C5.01046 3.25483 4.90538 3.35482 4.75873 3.58529C4.60629 3.82487 4.44229 4.14988 4.19688 4.64061L2.92124 7.86526C2.77707 8.2297 2.66805 8.56545 2.6384 8.86073C2.60988 9.14471 2.66039 9.3259 2.76482 9.45832C2.97576 9.72582 3.30049 9.89551 3.66528 9.89551C4.29811 9.89551 4.81112 9.3825 4.81112 8.74968C4.81112 8.36998 5.11892 8.06218 5.49862 8.06218C5.87831 8.06218 6.18612 8.36998 6.18612 8.74968Z" fill="white"/>
</svg>
