<svg width="22" height="23" viewBox="0 0 22 23" fill="none" xmlns="http://www.w3.org/2000/svg">
<path fill-rule="evenodd" clip-rule="evenodd" d="M10.9987 1.64551C10.4444 1.64551 9.93394 1.78327 9.37508 2.01439C8.83544 2.23757 8.20866 2.56649 7.42819 2.97607L5.53297 3.97064C4.57508 4.47331 3.80851 4.87558 3.21663 5.27084C2.60344 5.68034 2.13116 6.11152 1.78723 6.69559C1.44445 7.2777 1.29024 7.90803 1.2163 8.65867C1.14452 9.38729 1.14452 10.2834 1.14453 11.4104V11.589C1.14452 12.7159 1.14452 13.6121 1.2163 14.3407C1.29024 15.0913 1.44445 15.7216 1.78723 16.3038C2.13116 16.8878 2.60344 17.319 3.21663 17.7285C3.80851 18.1238 4.57507 18.526 5.53295 19.0287L7.42811 20.0232C8.20862 20.4328 8.83542 20.7618 9.37508 20.985C9.93394 21.2161 10.4444 21.3538 10.9987 21.3538C11.553 21.3538 12.0635 21.2161 12.6223 20.985C13.162 20.7618 13.7887 20.4329 14.5692 20.0233L16.4644 19.0287C17.4223 18.5261 18.1889 18.1238 18.7808 17.7285C19.394 17.319 19.8662 16.8878 20.2102 16.3038C20.5529 15.7216 20.7072 15.0913 20.7811 14.3407C20.8529 13.6121 20.8529 12.716 20.8529 11.589V11.4103C20.8529 10.2834 20.8529 9.38728 20.7811 8.65867C20.7072 7.90803 20.5529 7.2777 20.2102 6.69559C19.8662 6.11152 19.394 5.68034 18.7808 5.27084C18.1889 4.87557 17.4223 4.4733 16.4644 3.97063L14.5692 2.97609C13.7887 2.5665 13.162 2.23757 12.6223 2.01439C12.0635 1.78327 11.553 1.64551 10.9987 1.64551ZM8.0386 4.20858C8.85417 3.78058 9.4257 3.4814 9.90056 3.28502C10.3627 3.09388 10.6874 3.02051 10.9987 3.02051C11.3099 3.02051 11.6346 3.09388 12.0968 3.28502C12.5717 3.4814 13.1432 3.78058 13.9588 4.20858L15.7921 5.17067C16.791 5.69486 17.4928 6.06414 18.0171 6.41431C18.2758 6.58706 18.4791 6.74747 18.6432 6.90877L15.5901 8.43533L7.79857 4.33454L8.0386 4.20858ZM6.36464 5.08703L6.20527 5.17067C5.20638 5.69486 4.5046 6.06414 3.98026 6.4143C3.72157 6.58706 3.51829 6.74748 3.35419 6.90877L10.9987 10.731L14.0761 9.19232L6.55349 5.23305C6.48041 5.19459 6.41712 5.14482 6.36464 5.08703ZM2.69157 8.11476C2.64528 8.31082 2.61029 8.53346 2.58467 8.79347C2.5203 9.44689 2.51953 10.2754 2.51953 11.4461V11.5533C2.51953 12.724 2.5203 13.5525 2.58467 14.2059C2.64763 14.8449 2.76723 15.2582 2.97207 15.6061C3.17575 15.952 3.47036 16.2445 3.98026 16.585C4.5046 16.9352 5.20638 17.3045 6.20527 17.8287L8.0386 18.7908C8.85417 19.2188 9.4257 19.5179 9.90056 19.7143C10.0505 19.7763 10.186 19.8259 10.3112 19.8647V11.9246L2.69157 8.11476ZM11.6862 19.8647C11.8114 19.8259 11.9469 19.7763 12.0968 19.7143C12.5717 19.5179 13.1432 19.2188 13.9588 18.7908L15.7921 17.8287C16.791 17.3045 17.4928 16.9352 18.0171 16.585C18.527 16.2445 18.8216 15.952 19.0253 15.6061C19.2302 15.2582 19.3498 14.8449 19.4127 14.2059C19.4771 13.5525 19.4779 12.724 19.4779 11.5533V11.4461C19.4779 10.2754 19.4771 9.44689 19.4127 8.79347C19.3871 8.53345 19.3521 8.31082 19.3058 8.11476L16.2695 9.6329V12.4163C16.2695 12.796 15.9617 13.1038 15.582 13.1038C15.2023 13.1038 14.8945 12.796 14.8945 12.4163V10.3204L11.6862 11.9246V19.8647Z" fill="#64748B"/>
</svg>
